<svg width="63" height="63" viewBox="0 0 63 63" fill="none" xmlns="http://www.w3.org/2000/svg">
<path d="M31.5 62.75C14.2411 62.75 0.25 48.7589 0.25 31.5C0.25 14.2411 14.2411 0.25 31.5 0.25C48.7589 0.25 62.75 14.2411 62.75 31.5C62.7311 48.751 48.751 62.7311 31.5 62.75ZM31.5 6.5C17.6929 6.5 6.5 17.6929 6.5 31.5C6.5 45.3071 17.6929 56.5 31.5 56.5C45.3071 56.5 56.5 45.3071 56.5 31.5C56.4845 17.6993 45.3007 6.5155 31.5 6.5ZM31.3437 42.4375L15.875 26.9688L20.2938 22.55L31.3437 33.5969L42.3938 22.55L46.8125 26.9688L31.3437 42.4375Z" fill="white" fill-opacity="0.75"/>
</svg>
